<?xml version="1.0" encoding="utf-8"?><!-- Uploaded to: SVG Repo, www.svgrepo.com, Generator: SVG Repo Mixer Tools -->
<svg fill="#000000" width="800px" height="800px" viewBox="0 0 24 24" id="touchid" data-name="Flat Color" xmlns="http://www.w3.org/2000/svg" class="icon flat-color"><path id="secondary" d="M13,22a1,1,0,0,1-.6-.2,1,1,0,0,1-.2-1.4A15,15,0,0,0,15,11a1,1,0,0,1,2,0,16.87,16.87,0,0,1-3.2,10.6A1,1,0,0,1,13,22ZM6.88,17.88C8,16.75,9,12.79,9,11a3,3,0,0,1,4.5-2.6,1,1,0,1,0,1-1.73A5,5,0,0,0,7,11c0,1.66-1,4.91-1.54,5.46a1,1,0,0,0,0,1.42,1,1,0,0,0,.71.29A1,1,0,0,0,6.88,17.88Z" style="fill: rgb(44, 169, 188);"></path><path id="primary" d="M18,20a.94.94,0,0,1-.55-.17,1,1,0,0,1-.28-1.38A13.4,13.4,0,0,0,19,11a7,7,0,0,0-7-7,6.87,6.87,0,0,0-2.62.51,1,1,0,1,1-.76-1.85A8.89,8.89,0,0,1,12,2a9,9,0,0,1,9,9,15.2,15.2,0,0,1-2.17,8.55A1,1,0,0,1,18,20ZM4.29,14.33A10.63,10.63,0,0,0,5,11,7,7,0,0,1,6.75,6.38a1,1,0,1,0-1.5-1.33A9,9,0,0,0,3,11a8.81,8.81,0,0,1-.6,2.67A1,1,0,0,0,3,15a1.13,1.13,0,0,0,.32.05A1,1,0,0,0,4.29,14.33Zm4.26,7.5C12.21,19.4,13,12.56,13,11a1,1,0,0,0-2,0c0,2-1,7.48-3.55,9.17A1,1,0,0,0,8,22,.94.94,0,0,0,8.55,21.83Z" style="fill: rgb(0, 0, 0);"></path></svg>